<mxfile host="app.diagrams.net" agent="Mozilla/5.0 (Macintosh; Intel Mac OS X 10_15_7) AppleWebKit/537.36 (KHTML, like Gecko) Chrome/141.0.0.0 Safari/537.36" version="28.2.8" pages="3">
  <diagram name="第 1 页" id="G-UP8B3y46uZl5Mjnxwu">
    <mxGraphModel dx="1412" dy="882" grid="1" gridSize="10" guides="1" tooltips="1" connect="1" arrows="1" fold="1" page="1" pageScale="1" pageWidth="827" pageHeight="1169" math="0" shadow="0">
      <root>
        <mxCell id="0" />
        <mxCell id="1" parent="0" />
        <mxCell id="oheXNA1Uqf13AkaYdv0t-1" value="" style="shape=umlLifeline;perimeter=lifelinePerimeter;whiteSpace=wrap;html=1;container=1;dropTarget=0;collapsible=0;recursiveResize=0;outlineConnect=0;portConstraint=eastwest;newEdgeStyle={&quot;curved&quot;:0,&quot;rounded&quot;:0};participant=umlActor;sketch=1;hachureGap=4;jiggle=2;curveFitting=1;fontFamily=手札体-简;fontSize=14;" vertex="1" parent="1">
          <mxGeometry x="100" y="100" width="20" height="700" as="geometry" />
        </mxCell>
        <mxCell id="oheXNA1Uqf13AkaYdv0t-7" value="" style="html=1;points=[[0,0,0,0,5],[0,1,0,0,-5],[1,0,0,0,5],[1,1,0,0,-5]];perimeter=orthogonalPerimeter;outlineConnect=0;targetShapes=umlLifeline;portConstraint=eastwest;newEdgeStyle={&quot;curved&quot;:0,&quot;rounded&quot;:0};sketch=1;hachureGap=4;jiggle=2;curveFitting=1;fontFamily=手札体-简;fontSize=14;" vertex="1" parent="oheXNA1Uqf13AkaYdv0t-1">
          <mxGeometry x="5" y="70" width="10" height="110" as="geometry" />
        </mxCell>
        <mxCell id="oheXNA1Uqf13AkaYdv0t-2" value="" style="shape=umlLifeline;perimeter=lifelinePerimeter;whiteSpace=wrap;html=1;container=1;dropTarget=0;collapsible=0;recursiveResize=0;outlineConnect=0;portConstraint=eastwest;newEdgeStyle={&quot;curved&quot;:0,&quot;rounded&quot;:0};participant=umlActor;sketch=1;hachureGap=4;jiggle=2;curveFitting=1;fontFamily=手札体-简;fontSize=14;" vertex="1" parent="1">
          <mxGeometry x="404" y="100" width="20" height="700" as="geometry" />
        </mxCell>
        <mxCell id="oheXNA1Uqf13AkaYdv0t-12" value="" style="html=1;points=[[0,0,0,0,5],[0,1,0,0,-5],[1,0,0,0,5],[1,1,0,0,-5]];perimeter=orthogonalPerimeter;outlineConnect=0;targetShapes=umlLifeline;portConstraint=eastwest;newEdgeStyle={&quot;curved&quot;:0,&quot;rounded&quot;:0};sketch=1;hachureGap=4;jiggle=2;curveFitting=1;fontFamily=手札体-简;fontSize=14;" vertex="1" parent="oheXNA1Uqf13AkaYdv0t-2">
          <mxGeometry x="5" y="180" width="10" height="70" as="geometry" />
        </mxCell>
        <mxCell id="oheXNA1Uqf13AkaYdv0t-24" value="" style="html=1;points=[[0,0,0,0,5],[0,1,0,0,-5],[1,0,0,0,5],[1,1,0,0,-5]];perimeter=orthogonalPerimeter;outlineConnect=0;targetShapes=umlLifeline;portConstraint=eastwest;newEdgeStyle={&quot;curved&quot;:0,&quot;rounded&quot;:0};sketch=1;hachureGap=4;jiggle=2;curveFitting=1;fontFamily=手札体-简;fontSize=14;" vertex="1" parent="oheXNA1Uqf13AkaYdv0t-2">
          <mxGeometry x="5" y="350" width="10" height="70" as="geometry" />
        </mxCell>
        <mxCell id="oheXNA1Uqf13AkaYdv0t-28" value="" style="html=1;points=[[0,0,0,0,5],[0,1,0,0,-5],[1,0,0,0,5],[1,1,0,0,-5]];perimeter=orthogonalPerimeter;outlineConnect=0;targetShapes=umlLifeline;portConstraint=eastwest;newEdgeStyle={&quot;curved&quot;:0,&quot;rounded&quot;:0};sketch=1;hachureGap=4;jiggle=2;curveFitting=1;fontFamily=手札体-简;fontSize=14;" vertex="1" parent="oheXNA1Uqf13AkaYdv0t-2">
          <mxGeometry x="5" y="485" width="10" height="95" as="geometry" />
        </mxCell>
        <mxCell id="oheXNA1Uqf13AkaYdv0t-33" value="" style="html=1;points=[[0,0,0,0,5],[0,1,0,0,-5],[1,0,0,0,5],[1,1,0,0,-5]];perimeter=orthogonalPerimeter;outlineConnect=0;targetShapes=umlLifeline;portConstraint=eastwest;newEdgeStyle={&quot;curved&quot;:0,&quot;rounded&quot;:0};sketch=1;hachureGap=4;jiggle=2;curveFitting=1;fontFamily=手札体-简;fontSize=14;" vertex="1" parent="oheXNA1Uqf13AkaYdv0t-2">
          <mxGeometry x="5" y="630" width="10" height="45" as="geometry" />
        </mxCell>
        <mxCell id="oheXNA1Uqf13AkaYdv0t-3" value="" style="shape=umlLifeline;perimeter=lifelinePerimeter;whiteSpace=wrap;html=1;container=1;dropTarget=0;collapsible=0;recursiveResize=0;outlineConnect=0;portConstraint=eastwest;newEdgeStyle={&quot;curved&quot;:0,&quot;rounded&quot;:0};participant=umlEntity;sketch=1;hachureGap=4;jiggle=2;curveFitting=1;fontFamily=手札体-简;fontSize=14;" vertex="1" parent="1">
          <mxGeometry x="710" y="90" width="40" height="710" as="geometry" />
        </mxCell>
        <mxCell id="oheXNA1Uqf13AkaYdv0t-16" value="" style="html=1;points=[[0,0,0,0,5],[0,1,0,0,-5],[1,0,0,0,5],[1,1,0,0,-5]];perimeter=orthogonalPerimeter;outlineConnect=0;targetShapes=umlLifeline;portConstraint=eastwest;newEdgeStyle={&quot;curved&quot;:0,&quot;rounded&quot;:0};sketch=1;hachureGap=4;jiggle=2;curveFitting=1;fontFamily=手札体-简;fontSize=14;" vertex="1" parent="oheXNA1Uqf13AkaYdv0t-3">
          <mxGeometry x="15" y="230" width="10" height="140" as="geometry" />
        </mxCell>
        <mxCell id="oheXNA1Uqf13AkaYdv0t-4" value="Data PM" style="text;html=1;align=center;verticalAlign=middle;whiteSpace=wrap;rounded=0;fontFamily=手札体-简;fontSize=18;" vertex="1" parent="1">
          <mxGeometry x="65" y="50" width="90" height="30" as="geometry" />
        </mxCell>
        <mxCell id="oheXNA1Uqf13AkaYdv0t-5" value="Dev" style="text;html=1;align=center;verticalAlign=middle;whiteSpace=wrap;rounded=0;fontFamily=手札体-简;fontSize=18;" vertex="1" parent="1">
          <mxGeometry x="384" y="50" width="60" height="30" as="geometry" />
        </mxCell>
        <mxCell id="oheXNA1Uqf13AkaYdv0t-6" value="Cursor" style="text;html=1;align=center;verticalAlign=middle;whiteSpace=wrap;rounded=0;fontFamily=手札体-简;fontSize=18;" vertex="1" parent="1">
          <mxGeometry x="700" y="50" width="60" height="30" as="geometry" />
        </mxCell>
        <mxCell id="oheXNA1Uqf13AkaYdv0t-8" value="编写埋点需求&lt;div&gt;&lt;br&gt;&lt;div&gt;埋点需求&lt;b&gt;&lt;font style=&quot;color: rgb(0, 102, 204);&quot;&gt;描述页面、场景、区域、条件等信息&lt;/font&gt;&lt;/b&gt;&lt;/div&gt;&lt;/div&gt;" style="text;html=1;align=left;verticalAlign=middle;whiteSpace=wrap;rounded=0;fontFamily=手札体-简;fontSize=14;" vertex="1" parent="1">
          <mxGeometry x="130" y="180" width="170" height="30" as="geometry" />
        </mxCell>
        <mxCell id="oheXNA1Uqf13AkaYdv0t-10" value="&lt;div&gt;提供埋点需求的 &lt;font style=&quot;color: rgb(0, 102, 204);&quot;&gt;&lt;b&gt;ticket id 或 point id&lt;/b&gt;&lt;/font&gt;&lt;/div&gt;" style="text;html=1;align=left;verticalAlign=middle;whiteSpace=wrap;rounded=0;fontFamily=手札体-简;fontSize=14;" vertex="1" parent="1">
          <mxGeometry x="130" y="250" width="240" height="30" as="geometry" />
        </mxCell>
        <mxCell id="oheXNA1Uqf13AkaYdv0t-11" value="" style="endArrow=open;endFill=1;endSize=12;html=1;rounded=0;sketch=1;hachureGap=4;jiggle=2;curveFitting=1;fontFamily=手札体-简;fontSize=14;" edge="1" parent="1" source="oheXNA1Uqf13AkaYdv0t-1" target="oheXNA1Uqf13AkaYdv0t-2">
          <mxGeometry width="160" relative="1" as="geometry">
            <mxPoint x="180" y="260" as="sourcePoint" />
            <mxPoint x="340" y="260" as="targetPoint" />
            <Array as="points">
              <mxPoint x="270" y="280" />
            </Array>
          </mxGeometry>
        </mxCell>
        <mxCell id="oheXNA1Uqf13AkaYdv0t-14" value="" style="endArrow=open;endFill=1;endSize=12;html=1;rounded=0;sketch=1;hachureGap=4;jiggle=2;curveFitting=1;fontFamily=手札体-简;fontSize=14;" edge="1" parent="1">
          <mxGeometry width="160" relative="1" as="geometry">
            <mxPoint x="419" y="320" as="sourcePoint" />
            <mxPoint x="729.5" y="320" as="targetPoint" />
            <Array as="points">
              <mxPoint x="600" y="320" />
            </Array>
          </mxGeometry>
        </mxCell>
        <mxCell id="oheXNA1Uqf13AkaYdv0t-15" value="&lt;div&gt;&lt;font style=&quot;color: rgb(0, 102, 204);&quot;&gt;&lt;b&gt;提取 point id&lt;/b&gt;&lt;/font&gt;，输入&quot;&lt;span style=&quot;background-color: transparent; color: light-dark(rgb(0, 0, 0), rgb(255, 255, 255));&quot;&gt;埋点指令&lt;/span&gt;&lt;span style=&quot;background-color: transparent; color: light-dark(rgb(0, 0, 0), rgb(255, 255, 255));&quot;&gt;&quot;&lt;/span&gt;&lt;/div&gt;" style="text;html=1;align=left;verticalAlign=middle;whiteSpace=wrap;rounded=0;fontFamily=手札体-简;fontSize=14;" vertex="1" parent="1">
          <mxGeometry x="424" y="290" width="240" height="30" as="geometry" />
        </mxCell>
        <mxCell id="oheXNA1Uqf13AkaYdv0t-17" value="根据 point id，获取埋点需求&lt;div&gt;（如果 token 过期，则重新获取 token）&lt;/div&gt;" style="text;html=1;align=left;verticalAlign=middle;whiteSpace=wrap;rounded=0;fontFamily=手札体-简;fontSize=14;" vertex="1" parent="1">
          <mxGeometry x="750" y="330" width="270" height="30" as="geometry" />
        </mxCell>
        <mxCell id="oheXNA1Uqf13AkaYdv0t-18" value="解析埋点需求，阅读代码，定位代码位置" style="text;html=1;align=left;verticalAlign=middle;whiteSpace=wrap;rounded=0;fontFamily=手札体-简;fontSize=14;" vertex="1" parent="1">
          <mxGeometry x="750" y="380" width="270" height="30" as="geometry" />
        </mxCell>
        <mxCell id="oheXNA1Uqf13AkaYdv0t-20" value="根据代码埋点框架和示例，生成埋点代码" style="text;html=1;align=left;verticalAlign=middle;whiteSpace=wrap;rounded=0;fontFamily=手札体-简;fontSize=14;" vertex="1" parent="1">
          <mxGeometry x="750" y="430" width="270" height="30" as="geometry" />
        </mxCell>
        <mxCell id="oheXNA1Uqf13AkaYdv0t-21" value="" style="endArrow=open;endFill=1;endSize=12;html=1;rounded=0;sketch=1;hachureGap=4;jiggle=2;curveFitting=1;fontFamily=手札体-简;fontSize=14;exitX=0;exitY=1;exitDx=0;exitDy=-5;exitPerimeter=0;" edge="1" parent="1">
          <mxGeometry width="160" relative="1" as="geometry">
            <mxPoint x="725.5" y="460" as="sourcePoint" />
            <mxPoint x="414" y="455" as="targetPoint" />
            <Array as="points">
              <mxPoint x="510.5" y="455" />
            </Array>
          </mxGeometry>
        </mxCell>
        <mxCell id="oheXNA1Uqf13AkaYdv0t-23" value="生成埋点代码" style="text;html=1;align=right;verticalAlign=middle;whiteSpace=wrap;rounded=0;fontFamily=手札体-简;fontSize=14;" vertex="1" parent="1">
          <mxGeometry x="420" y="425" width="300" height="30" as="geometry" />
        </mxCell>
        <mxCell id="oheXNA1Uqf13AkaYdv0t-25" value="&lt;b&gt;&lt;font style=&quot;color: rgb(0, 102, 204);&quot;&gt;检查埋点代码&lt;/font&gt;&lt;/b&gt;" style="text;html=1;align=left;verticalAlign=middle;whiteSpace=wrap;rounded=0;fontFamily=手札体-简;fontSize=14;" vertex="1" parent="1">
          <mxGeometry x="420" y="470" width="270" height="30" as="geometry" />
        </mxCell>
        <mxCell id="oheXNA1Uqf13AkaYdv0t-26" value="" style="endArrow=open;endFill=1;endSize=12;html=1;rounded=0;sketch=1;hachureGap=4;jiggle=2;curveFitting=1;fontFamily=手札体-简;fontSize=14;exitX=0;exitY=1;exitDx=0;exitDy=-5;exitPerimeter=0;" edge="1" parent="1">
          <mxGeometry width="160" relative="1" as="geometry">
            <mxPoint x="725.5" y="602" as="sourcePoint" />
            <mxPoint x="414" y="597" as="targetPoint" />
            <Array as="points">
              <mxPoint x="510.5" y="597" />
            </Array>
          </mxGeometry>
        </mxCell>
        <mxCell id="oheXNA1Uqf13AkaYdv0t-27" value="生成自测文档模板" style="text;html=1;align=right;verticalAlign=middle;whiteSpace=wrap;rounded=0;fontFamily=手札体-简;fontSize=14;" vertex="1" parent="1">
          <mxGeometry x="420" y="567" width="300" height="30" as="geometry" />
        </mxCell>
        <mxCell id="oheXNA1Uqf13AkaYdv0t-29" value="填写自测文档" style="text;html=1;align=left;verticalAlign=middle;whiteSpace=wrap;rounded=0;fontFamily=手札体-简;fontSize=14;" vertex="1" parent="1">
          <mxGeometry x="420" y="620" width="270" height="30" as="geometry" />
        </mxCell>
        <mxCell id="oheXNA1Uqf13AkaYdv0t-30" value="提测、自测、上 UAT" style="text;html=1;align=left;verticalAlign=middle;whiteSpace=wrap;rounded=0;fontFamily=手札体-简;fontSize=14;" vertex="1" parent="1">
          <mxGeometry x="420" y="650" width="270" height="30" as="geometry" />
        </mxCell>
        <mxCell id="oheXNA1Uqf13AkaYdv0t-31" value="" style="endArrow=open;endFill=1;endSize=12;html=1;rounded=0;sketch=1;hachureGap=4;jiggle=2;curveFitting=1;fontFamily=手札体-简;fontSize=14;" edge="1" parent="1" source="oheXNA1Uqf13AkaYdv0t-2">
          <mxGeometry width="160" relative="1" as="geometry">
            <mxPoint x="390" y="725" as="sourcePoint" />
            <mxPoint x="108.5" y="720" as="targetPoint" />
            <Array as="points">
              <mxPoint x="205" y="720" />
            </Array>
          </mxGeometry>
        </mxCell>
        <mxCell id="oheXNA1Uqf13AkaYdv0t-32" value="验证埋点功能是否符合预期" style="text;html=1;align=left;verticalAlign=middle;whiteSpace=wrap;rounded=0;fontFamily=手札体-简;fontSize=14;" vertex="1" parent="1">
          <mxGeometry x="114.5" y="690" width="285.5" height="30" as="geometry" />
        </mxCell>
        <mxCell id="oheXNA1Uqf13AkaYdv0t-34" value="代码上线、live testing" style="text;html=1;align=left;verticalAlign=middle;whiteSpace=wrap;rounded=0;fontFamily=手札体-简;fontSize=14;" vertex="1" parent="1">
          <mxGeometry x="420" y="740" width="270" height="30" as="geometry" />
        </mxCell>
        <mxCell id="oheXNA1Uqf13AkaYdv0t-35" value="&lt;font color=&quot;#0066cc&quot;&gt;&lt;b&gt;验证埋点功能&lt;/b&gt;&lt;/font&gt;" style="text;html=1;align=left;verticalAlign=middle;whiteSpace=wrap;rounded=0;fontFamily=手札体-简;fontSize=14;" vertex="1" parent="1">
          <mxGeometry x="420" y="500" width="270" height="30" as="geometry" />
        </mxCell>
      </root>
    </mxGraphModel>
  </diagram>
  <diagram id="EQ31WTvvUdvg59ONBWdB" name="第 2 页">
    <mxGraphModel dx="1412" dy="2051" grid="1" gridSize="10" guides="1" tooltips="1" connect="1" arrows="1" fold="1" page="1" pageScale="1" pageWidth="827" pageHeight="1169" math="0" shadow="0">
      <root>
        <mxCell id="0" />
        <mxCell id="1" parent="0" />
        <mxCell id="Yft5QNDTnD-uo_OoIa3e-8" value="" style="edgeStyle=orthogonalEdgeStyle;rounded=0;sketch=1;hachureGap=4;jiggle=2;curveFitting=1;orthogonalLoop=1;jettySize=auto;html=1;fontFamily=手札体-简;fontSize=20;entryX=0;entryY=0.5;entryDx=0;entryDy=0;curved=1;" edge="1" parent="1" source="Yft5QNDTnD-uo_OoIa3e-2" target="Yft5QNDTnD-uo_OoIa3e-7">
          <mxGeometry relative="1" as="geometry" />
        </mxCell>
        <mxCell id="Yft5QNDTnD-uo_OoIa3e-15" style="edgeStyle=orthogonalEdgeStyle;rounded=0;sketch=1;hachureGap=4;jiggle=2;curveFitting=1;orthogonalLoop=1;jettySize=auto;html=1;exitX=1;exitY=0.5;exitDx=0;exitDy=0;entryX=0;entryY=0.5;entryDx=0;entryDy=0;fontFamily=手札体-简;curved=1;" edge="1" parent="1" source="Yft5QNDTnD-uo_OoIa3e-2" target="Yft5QNDTnD-uo_OoIa3e-5">
          <mxGeometry relative="1" as="geometry" />
        </mxCell>
        <mxCell id="Yft5QNDTnD-uo_OoIa3e-2" value="withLazyRoute" style="rounded=1;whiteSpace=wrap;html=1;sketch=1;hachureGap=4;jiggle=2;curveFitting=1;fontFamily=手札体-简;fontSize=20;" vertex="1" parent="1">
          <mxGeometry x="425" y="350" width="210" height="100" as="geometry" />
        </mxCell>
        <mxCell id="Yft5QNDTnD-uo_OoIa3e-5" value="先展示 Placeholder" style="whiteSpace=wrap;html=1;fontSize=20;fontFamily=手札体-简;rounded=1;sketch=1;hachureGap=4;jiggle=2;curveFitting=1;" vertex="1" parent="1">
          <mxGeometry x="700" y="290" width="145" height="90" as="geometry" />
        </mxCell>
        <mxCell id="Yft5QNDTnD-uo_OoIa3e-11" value="" style="edgeStyle=orthogonalEdgeStyle;rounded=0;sketch=1;hachureGap=4;jiggle=2;curveFitting=1;orthogonalLoop=1;jettySize=auto;html=1;fontFamily=手札体-简;fontSize=20;curved=1;entryX=0;entryY=0.5;entryDx=0;entryDy=0;" edge="1" parent="1" source="Yft5QNDTnD-uo_OoIa3e-7" target="Yft5QNDTnD-uo_OoIa3e-10">
          <mxGeometry relative="1" as="geometry" />
        </mxCell>
        <mxCell id="Yft5QNDTnD-uo_OoIa3e-7" value="加载真实页面内容" style="whiteSpace=wrap;html=1;fontSize=20;fontFamily=手札体-简;rounded=1;sketch=1;hachureGap=4;jiggle=2;curveFitting=1;" vertex="1" parent="1">
          <mxGeometry x="780" y="430" width="120" height="60" as="geometry" />
        </mxCell>
        <mxCell id="Yft5QNDTnD-uo_OoIa3e-14" style="edgeStyle=orthogonalEdgeStyle;rounded=0;sketch=1;hachureGap=4;jiggle=2;curveFitting=1;orthogonalLoop=1;jettySize=auto;html=1;exitX=1;exitY=0.5;exitDx=0;exitDy=0;fontFamily=手札体-简;" edge="1" parent="1" source="Yft5QNDTnD-uo_OoIa3e-9" target="Yft5QNDTnD-uo_OoIa3e-2">
          <mxGeometry relative="1" as="geometry" />
        </mxCell>
        <mxCell id="Yft5QNDTnD-uo_OoIa3e-9" value="先用 Placeholder 作为页面内容去注册路由" style="whiteSpace=wrap;html=1;fontSize=20;fontFamily=手札体-简;rounded=1;sketch=1;hachureGap=4;jiggle=2;curveFitting=1;" vertex="1" parent="1">
          <mxGeometry x="120" y="330" width="220" height="140" as="geometry" />
        </mxCell>
        <mxCell id="Yft5QNDTnD-uo_OoIa3e-19" style="edgeStyle=orthogonalEdgeStyle;rounded=0;sketch=1;hachureGap=4;jiggle=2;curveFitting=1;orthogonalLoop=1;jettySize=auto;html=1;exitX=0.5;exitY=0;exitDx=0;exitDy=0;entryX=0.5;entryY=0;entryDx=0;entryDy=0;fontFamily=手札体-简;curved=1;" edge="1" parent="1" source="Yft5QNDTnD-uo_OoIa3e-10" target="Yft5QNDTnD-uo_OoIa3e-2">
          <mxGeometry relative="1" as="geometry">
            <Array as="points">
              <mxPoint x="1030" y="230" />
              <mxPoint x="530" y="230" />
            </Array>
          </mxGeometry>
        </mxCell>
        <mxCell id="Yft5QNDTnD-uo_OoIa3e-20" value="&lt;font style=&quot;font-size: 20px;&quot;&gt;页面跳转&lt;/font&gt;" style="edgeLabel;html=1;align=center;verticalAlign=middle;resizable=0;points=[];sketch=1;hachureGap=4;jiggle=2;curveFitting=1;fontFamily=手札体-简;" vertex="1" connectable="0" parent="Yft5QNDTnD-uo_OoIa3e-19">
          <mxGeometry x="-0.1352" y="-1" relative="1" as="geometry">
            <mxPoint x="339" y="-324" as="offset" />
          </mxGeometry>
        </mxCell>
        <mxCell id="Yft5QNDTnD-uo_OoIa3e-10" value="显示真实页面内容" style="whiteSpace=wrap;html=1;fontSize=20;fontFamily=手札体-简;rounded=1;sketch=1;hachureGap=4;jiggle=2;curveFitting=1;" vertex="1" parent="1">
          <mxGeometry x="970" y="430" width="120" height="60" as="geometry" />
        </mxCell>
        <mxCell id="Yft5QNDTnD-uo_OoIa3e-17" style="edgeStyle=orthogonalEdgeStyle;rounded=0;sketch=1;hachureGap=4;jiggle=2;curveFitting=1;orthogonalLoop=1;jettySize=auto;html=1;fontFamily=手札体-简;" edge="1" parent="1" source="Yft5QNDTnD-uo_OoIa3e-16" target="Yft5QNDTnD-uo_OoIa3e-2">
          <mxGeometry relative="1" as="geometry" />
        </mxCell>
        <mxCell id="Yft5QNDTnD-uo_OoIa3e-16" value="URL" style="text;html=1;whiteSpace=wrap;strokeColor=none;fillColor=none;align=center;verticalAlign=middle;rounded=0;fontFamily=手札体-简;fontSize=20;" vertex="1" parent="1">
          <mxGeometry x="500" y="170" width="60" height="30" as="geometry" />
        </mxCell>
        <mxCell id="Yft5QNDTnD-uo_OoIa3e-21" value="页面跳转" style="text;html=1;whiteSpace=wrap;strokeColor=none;fillColor=none;align=center;verticalAlign=middle;rounded=0;fontFamily=手札体-简;fontSize=20;" vertex="1" parent="1">
          <mxGeometry x="780" y="190" width="120" height="30" as="geometry" />
        </mxCell>
      </root>
    </mxGraphModel>
  </diagram>
  <diagram id="ekCgHHZyjOeGoskBTJPw" name="第 3 页">
    <mxGraphModel dx="1412" dy="882" grid="1" gridSize="10" guides="1" tooltips="1" connect="1" arrows="1" fold="1" page="1" pageScale="1" pageWidth="827" pageHeight="1169" math="0" shadow="0">
      <root>
        <mxCell id="0" />
        <mxCell id="1" parent="0" />
        <mxCell id="e7_Uu4PD_0TBGyHrR6NO-3" style="edgeStyle=orthogonalEdgeStyle;rounded=0;sketch=1;hachureGap=4;jiggle=2;curveFitting=1;orthogonalLoop=1;jettySize=auto;html=1;exitX=1;exitY=0.5;exitDx=0;exitDy=0;entryX=0;entryY=0.5;entryDx=0;entryDy=0;fontFamily=Architects Daughter;fontSource=https%3A%2F%2Ffonts.googleapis.com%2Fcss%3Ffamily%3DArchitects%2BDaughter;" edge="1" parent="1" source="e7_Uu4PD_0TBGyHrR6NO-1" target="e7_Uu4PD_0TBGyHrR6NO-2">
          <mxGeometry relative="1" as="geometry" />
        </mxCell>
        <mxCell id="e7_Uu4PD_0TBGyHrR6NO-1" value="下载 RN Bundle" style="rounded=1;whiteSpace=wrap;html=1;sketch=1;hachureGap=4;jiggle=2;curveFitting=1;fontFamily=手札体-简;fontSize=14;" vertex="1" parent="1">
          <mxGeometry x="160" y="330" width="120" height="60" as="geometry" />
        </mxCell>
        <mxCell id="e7_Uu4PD_0TBGyHrR6NO-5" style="edgeStyle=orthogonalEdgeStyle;rounded=0;sketch=1;hachureGap=4;jiggle=2;curveFitting=1;orthogonalLoop=1;jettySize=auto;html=1;exitX=1;exitY=0.5;exitDx=0;exitDy=0;entryX=0;entryY=0.5;entryDx=0;entryDy=0;fontFamily=Architects Daughter;fontSource=https%3A%2F%2Ffonts.googleapis.com%2Fcss%3Ffamily%3DArchitects%2BDaughter;" edge="1" parent="1" source="e7_Uu4PD_0TBGyHrR6NO-2" target="e7_Uu4PD_0TBGyHrR6NO-4">
          <mxGeometry relative="1" as="geometry" />
        </mxCell>
        <mxCell id="e7_Uu4PD_0TBGyHrR6NO-2" value="加载 RN Bundle" style="rounded=1;whiteSpace=wrap;html=1;sketch=1;hachureGap=4;jiggle=2;curveFitting=1;fontFamily=手札体-简;fontSize=14;" vertex="1" parent="1">
          <mxGeometry x="470" y="330" width="120" height="60" as="geometry" />
        </mxCell>
        <mxCell id="e7_Uu4PD_0TBGyHrR6NO-4" value="页面呈现" style="rounded=1;whiteSpace=wrap;html=1;sketch=1;hachureGap=4;jiggle=2;curveFitting=1;fontFamily=手札体-简;fontSize=14;" vertex="1" parent="1">
          <mxGeometry x="740" y="330" width="120" height="60" as="geometry" />
        </mxCell>
        <mxCell id="e7_Uu4PD_0TBGyHrR6NO-11" value="" style="shape=curlyBracket;whiteSpace=wrap;html=1;rounded=1;labelPosition=left;verticalLabelPosition=middle;align=right;verticalAlign=middle;sketch=1;hachureGap=4;jiggle=2;curveFitting=1;fontFamily=Architects Daughter;fontSource=https%3A%2F%2Ffonts.googleapis.com%2Fcss%3Ffamily%3DArchitects%2BDaughter;rotation=90;" vertex="1" parent="1">
          <mxGeometry x="525" y="275" width="20" height="290" as="geometry" />
        </mxCell>
        <mxCell id="e7_Uu4PD_0TBGyHrR6NO-20" value="&lt;div&gt;延迟加载&lt;/div&gt;&amp;nbsp;·&amp;nbsp;注册页面：&lt;span style=&quot;background-color: transparent; color: light-dark(rgb(0, 0, 0), rgb(255, 255, 255));&quot;&gt;用 Placeholder 作为页面内容&lt;/span&gt;&lt;div&gt;&lt;div&gt;&lt;span style=&quot;background-color: transparent; color: light-dark(rgb(0, 0, 0), rgb(255, 255, 255));&quot;&gt;&amp;nbsp;·&lt;/span&gt;&lt;span style=&quot;background-color: transparent; color: light-dark(rgb(0, 0, 0), rgb(255, 255, 255));&quot;&gt;&amp;nbsp;&lt;/span&gt;加载页面：&lt;span style=&quot;background-color: transparent; color: light-dark(rgb(0, 0, 0), rgb(255, 255, 255));&quot;&gt;只加载当前页面真实内容&lt;/span&gt;&lt;/div&gt;&lt;div&gt;&amp;nbsp;· 懒加载其他页面&lt;/div&gt;&lt;/div&gt;&lt;div&gt;预加载&lt;/div&gt;&lt;div&gt;&amp;nbsp;· 页面加载完，提前加载下一页内容&lt;/div&gt;" style="text;html=1;whiteSpace=wrap;strokeColor=none;fillColor=none;align=left;verticalAlign=top;rounded=0;fontFamily=手札体-简;fontSize=16;" vertex="1" parent="1">
          <mxGeometry x="390" y="450" width="366" height="160" as="geometry" />
        </mxCell>
        <mxCell id="e7_Uu4PD_0TBGyHrR6NO-21" value="" style="shape=curlyBracket;whiteSpace=wrap;html=1;rounded=1;labelPosition=left;verticalLabelPosition=middle;align=right;verticalAlign=middle;sketch=1;hachureGap=4;jiggle=2;curveFitting=1;fontFamily=Architects Daughter;fontSource=https%3A%2F%2Ffonts.googleapis.com%2Fcss%3Ffamily%3DArchitects%2BDaughter;rotation=90;" vertex="1" parent="1">
          <mxGeometry x="210" y="360" width="20" height="120" as="geometry" />
        </mxCell>
        <mxCell id="e7_Uu4PD_0TBGyHrR6NO-22" value="&lt;div&gt;缩减 Bundle 体积&lt;/div&gt;&amp;nbsp;· 合并 Package&lt;br&gt;&amp;nbsp;·&amp;nbsp;按需引用&lt;br&gt;&amp;nbsp;·&amp;nbsp;移除重复代码&lt;br&gt;&amp;nbsp;·&amp;nbsp;移除无用代码" style="text;html=1;whiteSpace=wrap;strokeColor=none;fillColor=none;align=left;verticalAlign=top;rounded=0;fontFamily=手札体-简;fontSize=16;" vertex="1" parent="1">
          <mxGeometry x="160" y="450" width="190" height="150" as="geometry" />
        </mxCell>
        <mxCell id="e7_Uu4PD_0TBGyHrR6NO-23" value="" style="shape=curlyBracket;whiteSpace=wrap;html=1;rounded=1;labelPosition=left;verticalLabelPosition=middle;align=right;verticalAlign=middle;sketch=1;hachureGap=4;jiggle=2;curveFitting=1;fontFamily=Architects Daughter;fontSource=https%3A%2F%2Ffonts.googleapis.com%2Fcss%3Ffamily%3DArchitects%2BDaughter;rotation=90;" vertex="1" parent="1">
          <mxGeometry x="790" y="350" width="20" height="120" as="geometry" />
        </mxCell>
        <mxCell id="e7_Uu4PD_0TBGyHrR6NO-25" value="优化页面接口时序" style="text;html=1;whiteSpace=wrap;strokeColor=none;fillColor=none;align=left;verticalAlign=top;rounded=0;fontFamily=手札体-简;fontSize=16;" vertex="1" parent="1">
          <mxGeometry x="740" y="450" width="210" height="100" as="geometry" />
        </mxCell>
      </root>
    </mxGraphModel>
  </diagram>
</mxfile>
